<svg xmlns="http://www.w3.org/2000/svg" viewBox="0 0 500 500"><g id="freepik--Buildings--inject-38"><rect x="340.71" y="225" width="66" height="202.64" style="fill:#455a64"></rect><rect x="357.08" y="204.61" width="49.38" height="20.38" style="fill:#37474f"></rect><rect x="361.19" y="207.76" width="4.22" height="14.09" style="fill:#455a64"></rect><rect x="368.57" y="207.76" width="4.22" height="14.09" style="fill:#455a64"></rect><rect x="375.96" y="207.76" width="4.22" height="14.09" style="fill:#455a64"></rect><rect x="383.35" y="207.76" width="4.22" height="14.09" style="fill:#455a64"></rect><rect x="390.74" y="207.76" width="4.22" height="14.09" style="fill:#455a64"></rect><rect x="398.13" y="207.76" width="4.22" height="14.09" style="fill:#455a64"></rect><rect x="406.46" y="204.61" width="22.46" height="20.38" style="fill:#455a64"></rect><rect x="409.61" y="207.76" width="3.59" height="14.09" style="fill:#37474f"></rect><rect x="415.89" y="207.76" width="3.59" height="14.09" style="fill:#37474f"></rect><rect x="422.17" y="207.76" width="3.59" height="14.09" style="fill:#37474f"></rect><rect x="406.46" y="225" width="33.59" height="202.64" style="fill:#37474f"></rect><rect x="366.44" y="194.28" width="1.51" height="10.33" style="fill:#263238"></rect><rect x="395.58" y="194.28" width="1.51" height="10.33" style="fill:#263238"></rect><rect x="359.75" y="176.22" width="44.04" height="18.06" style="fill:#FFC727"></rect><rect x="354.22" y="238.95" width="12.18" height="18.65" style="fill:#263238"></rect><rect x="379.01" y="238.95" width="12.18" height="18.65" style="fill:#263238"></rect><rect x="354.22" y="268.35" width="12.18" height="18.65" style="fill:#263238"></rect><rect x="379.01" y="268.35" width="12.18" height="18.65" style="fill:#263238"></rect><rect x="354.22" y="297.74" width="12.18" height="18.65" style="fill:#263238"></rect><rect x="379.01" y="297.74" width="12.18" height="18.65" style="fill:#263238"></rect><rect x="354.22" y="327.14" width="12.18" height="18.65" style="fill:#263238"></rect><rect x="379.01" y="327.14" width="12.18" height="18.65" style="fill:#263238"></rect><rect x="354.22" y="356.53" width="12.18" height="18.65" style="fill:#263238"></rect><rect x="379.01" y="356.53" width="12.18" height="18.65" style="fill:#263238"></rect><rect x="354.22" y="385.92" width="12.18" height="18.65" style="fill:#263238"></rect><rect x="379.01" y="385.92" width="12.18" height="18.65" style="fill:#263238"></rect><rect x="412.63" y="238.95" width="7" height="18.65" style="fill:#263238"></rect><rect x="426.88" y="238.95" width="7" height="18.65" style="fill:#263238"></rect><rect x="412.63" y="268.35" width="7" height="18.65" style="fill:#263238"></rect><rect x="426.88" y="268.35" width="7" height="18.65" style="fill:#263238"></rect><rect x="412.63" y="297.74" width="7" height="18.65" style="fill:#263238"></rect><rect x="426.88" y="297.74" width="7" height="18.65" style="fill:#263238"></rect><rect x="412.63" y="327.14" width="7" height="18.65" style="fill:#263238"></rect><rect x="426.88" y="327.14" width="7" height="18.65" style="fill:#263238"></rect><rect x="412.63" y="356.53" width="7" height="18.65" style="fill:#263238"></rect><rect x="426.88" y="356.53" width="7" height="18.65" style="fill:#263238"></rect><rect x="412.63" y="385.92" width="7" height="18.65" style="fill:#263238"></rect><rect x="426.88" y="385.92" width="7" height="18.65" style="fill:#263238"></rect><rect x="196.52" y="167.67" width="35.3" height="259.96" style="fill:#37474f"></rect><rect x="196.52" y="182.24" width="35.3" height="2.73" style="fill:#455a64"></rect><rect x="200.16" y="193" width="6.5" height="15.2" style="fill:#263238"></rect><rect x="200.16" y="212.18" width="6.5" height="15.2" style="fill:#263238"></rect><rect x="200.16" y="231.35" width="6.5" height="15.2" style="fill:#263238"></rect><rect x="200.16" y="250.52" width="6.5" height="15.2" style="fill:#263238"></rect><rect x="200.16" y="269.7" width="6.5" height="15.2" style="fill:#263238"></rect><rect x="200.16" y="288.88" width="6.5" height="15.2" style="fill:#263238"></rect><rect x="200.16" y="308.04" width="6.5" height="15.2" style="fill:#263238"></rect><rect x="200.16" y="327.22" width="6.5" height="15.2" style="fill:#263238"></rect><rect x="200.16" y="346.4" width="6.5" height="15.2" style="fill:#263238"></rect><rect x="200.16" y="365.57" width="6.5" height="15.2" style="fill:#263238"></rect><rect x="200.16" y="384.74" width="6.5" height="15.2" style="fill:#263238"></rect><rect x="200.16" y="403.92" width="6.5" height="15.2" style="fill:#263238"></rect><rect x="200.16" y="193" width="6.5" height="15.2" style="fill:#263238"></rect><rect x="200.16" y="212.18" width="6.5" height="15.2" style="fill:#263238"></rect><rect x="200.16" y="231.35" width="6.5" height="15.2" style="fill:#263238"></rect><rect x="200.16" y="250.52" width="6.5" height="15.2" style="fill:#263238"></rect><rect x="200.16" y="269.7" width="6.5" height="15.2" style="fill:#263238"></rect><rect x="200.16" y="288.88" width="6.5" height="15.2" style="fill:#263238"></rect><rect x="200.16" y="308.04" width="6.5" height="15.2" style="fill:#263238"></rect><rect x="200.16" y="327.22" width="6.5" height="15.2" style="fill:#263238"></rect><rect x="200.16" y="346.4" width="6.5" height="15.2" style="fill:#263238"></rect><rect x="200.16" y="365.57" width="6.5" height="15.2" style="fill:#263238"></rect><rect x="200.16" y="384.74" width="6.5" height="15.2" style="fill:#263238"></rect><rect x="200.16" y="403.92" width="6.5" height="15.2" style="fill:#263238"></rect><rect x="210.92" y="193" width="6.5" height="15.2" style="fill:#263238"></rect><rect x="210.92" y="212.18" width="6.5" height="15.2" style="fill:#263238"></rect><rect x="210.92" y="231.35" width="6.5" height="15.2" style="fill:#263238"></rect><rect x="210.92" y="250.52" width="6.5" height="15.2" style="fill:#263238"></rect><rect x="210.92" y="269.7" width="6.5" height="15.2" style="fill:#263238"></rect><rect x="210.92" y="288.88" width="6.5" height="15.2" style="fill:#263238"></rect><rect x="210.92" y="308.04" width="6.5" height="15.2" style="fill:#263238"></rect><rect x="210.92" y="327.22" width="6.5" height="15.2" style="fill:#263238"></rect><rect x="210.92" y="346.4" width="6.5" height="15.2" style="fill:#263238"></rect><rect x="210.92" y="365.57" width="6.5" height="15.2" style="fill:#263238"></rect><rect x="210.92" y="384.74" width="6.5" height="15.2" style="fill:#263238"></rect><rect x="210.92" y="403.92" width="6.5" height="15.2" style="fill:#263238"></rect><rect x="210.92" y="193" width="6.5" height="15.2" style="fill:#263238"></rect><rect x="210.92" y="212.18" width="6.5" height="15.2" style="fill:#263238"></rect><rect x="210.92" y="231.35" width="6.5" height="15.2" style="fill:#263238"></rect><rect x="210.92" y="250.52" width="6.5" height="15.2" style="fill:#263238"></rect><rect x="210.92" y="269.7" width="6.5" height="15.2" style="fill:#263238"></rect><rect x="210.92" y="288.88" width="6.5" height="15.2" style="fill:#263238"></rect><rect x="210.92" y="308.04" width="6.5" height="15.2" style="fill:#263238"></rect><rect x="210.92" y="327.22" width="6.5" height="15.2" style="fill:#263238"></rect><rect x="210.92" y="346.4" width="6.5" height="15.2" style="fill:#263238"></rect><rect x="210.92" y="365.57" width="6.5" height="15.2" style="fill:#263238"></rect><rect x="210.92" y="384.74" width="6.5" height="15.2" style="fill:#263238"></rect><rect x="210.92" y="403.92" width="6.5" height="15.2" style="fill:#263238"></rect><rect x="221.68" y="193" width="6.5" height="15.2" style="fill:#263238"></rect><rect x="221.68" y="212.18" width="6.5" height="15.2" style="fill:#263238"></rect><rect x="221.68" y="231.35" width="6.5" height="15.2" style="fill:#263238"></rect><rect x="221.68" y="250.52" width="6.5" height="15.2" style="fill:#263238"></rect><rect x="221.68" y="269.7" width="6.5" height="15.2" style="fill:#263238"></rect><rect x="221.68" y="288.88" width="6.5" height="15.2" style="fill:#263238"></rect><rect x="221.68" y="308.04" width="6.5" height="15.2" style="fill:#263238"></rect><rect x="221.68" y="327.22" width="6.5" height="15.2" style="fill:#263238"></rect><rect x="221.68" y="346.4" width="6.5" height="15.2" style="fill:#263238"></rect><rect x="221.68" y="365.57" width="6.5" height="15.2" style="fill:#263238"></rect><rect x="221.68" y="384.74" width="6.5" height="15.2" style="fill:#263238"></rect><rect x="221.68" y="403.92" width="6.5" height="15.2" style="fill:#263238"></rect><rect x="221.68" y="193" width="6.5" height="15.2" style="fill:#263238"></rect><rect x="221.68" y="212.18" width="6.5" height="15.2" style="fill:#263238"></rect><rect x="221.68" y="231.35" width="6.5" height="15.2" style="fill:#263238"></rect><rect x="221.68" y="250.52" width="6.5" height="15.2" style="fill:#263238"></rect><rect x="221.68" y="269.7" width="6.5" height="15.2" style="fill:#263238"></rect><rect x="221.68" y="288.88" width="6.5" height="15.2" style="fill:#263238"></rect><rect x="221.68" y="308.04" width="6.5" height="15.2" style="fill:#263238"></rect><rect x="221.68" y="327.22" width="6.5" height="15.2" style="fill:#263238"></rect><rect x="221.68" y="346.4" width="6.5" height="15.2" style="fill:#263238"></rect><rect x="221.68" y="365.57" width="6.5" height="15.2" style="fill:#263238"></rect><rect x="221.68" y="384.74" width="6.5" height="15.2" style="fill:#263238"></rect><rect x="221.68" y="403.92" width="6.5" height="15.2" style="fill:#263238"></rect><rect x="136.17" y="167.67" width="60.35" height="259.96" style="fill:#455a64"></rect><rect x="136.17" y="182.24" width="60.35" height="2.73" style="fill:#37474f"></rect><rect x="157.68" y="153.07" width="38.84" height="14.6" style="fill:#37474f"></rect><rect x="196.52" y="153.07" width="18.25" height="14.6" transform="translate(411.29 320.74) rotate(180)" style="fill:#263238"></rect><rect x="142.64" y="193" width="10.55" height="15.2" style="fill:#263238"></rect><rect x="142.64" y="212.18" width="10.55" height="15.2" style="fill:#263238"></rect><rect x="142.64" y="231.35" width="10.55" height="15.2" style="fill:#263238"></rect><rect x="142.64" y="250.52" width="10.55" height="15.2" style="fill:#263238"></rect><rect x="142.64" y="269.7" width="10.55" height="15.2" style="fill:#263238"></rect><rect x="142.64" y="288.88" width="10.55" height="15.2" style="fill:#263238"></rect><rect x="142.64" y="308.04" width="10.55" height="15.2" style="fill:#263238"></rect><rect x="142.64" y="327.22" width="10.55" height="15.2" style="fill:#263238"></rect><rect x="142.64" y="346.4" width="10.55" height="15.2" style="fill:#263238"></rect><rect x="142.64" y="365.57" width="10.55" height="15.2" style="fill:#263238"></rect><rect x="142.64" y="384.74" width="10.55" height="15.2" style="fill:#263238"></rect><rect x="142.64" y="403.92" width="10.55" height="15.2" style="fill:#263238"></rect><rect x="142.64" y="193" width="10.55" height="15.2" style="fill:#263238"></rect><rect x="142.64" y="212.18" width="10.55" height="15.2" style="fill:#263238"></rect><rect x="142.64" y="231.35" width="10.55" height="15.2" style="fill:#263238"></rect><rect x="142.64" y="250.52" width="10.55" height="15.2" style="fill:#263238"></rect><rect x="142.64" y="269.7" width="10.55" height="15.2" style="fill:#263238"></rect><rect x="142.64" y="288.88" width="10.55" height="15.2" style="fill:#263238"></rect><rect x="142.64" y="308.04" width="10.55" height="15.2" style="fill:#263238"></rect><rect x="142.64" y="327.22" width="10.55" height="15.2" style="fill:#263238"></rect><rect x="142.64" y="346.4" width="10.55" height="15.2" style="fill:#263238"></rect><rect x="142.64" y="365.57" width="10.55" height="15.2" style="fill:#263238"></rect><rect x="142.64" y="384.74" width="10.55" height="15.2" style="fill:#263238"></rect><rect x="142.64" y="403.92" width="10.55" height="15.2" style="fill:#263238"></rect><rect x="160.11" y="193" width="10.55" height="15.2" style="fill:#263238"></rect><rect x="160.11" y="212.18" width="10.55" height="15.2" style="fill:#263238"></rect><rect x="160.11" y="231.35" width="10.55" height="15.2" style="fill:#263238"></rect><rect x="160.11" y="250.52" width="10.55" height="15.2" style="fill:#263238"></rect><rect x="160.11" y="269.7" width="10.55" height="15.2" style="fill:#263238"></rect><rect x="160.11" y="288.88" width="10.55" height="15.2" style="fill:#263238"></rect><rect x="160.11" y="308.04" width="10.55" height="15.2" style="fill:#263238"></rect><rect x="160.11" y="327.22" width="10.55" height="15.2" style="fill:#263238"></rect><rect x="160.11" y="346.4" width="10.55" height="15.2" style="fill:#263238"></rect><rect x="160.11" y="365.57" width="10.55" height="15.2" style="fill:#263238"></rect><rect x="160.11" y="384.74" width="10.55" height="15.2" style="fill:#263238"></rect><rect x="160.11" y="403.92" width="10.55" height="15.2" style="fill:#263238"></rect><rect x="160.11" y="193" width="10.55" height="15.2" style="fill:#263238"></rect><rect x="160.11" y="212.18" width="10.55" height="15.2" style="fill:#263238"></rect><rect x="160.11" y="231.35" width="10.55" height="15.2" style="fill:#263238"></rect><rect x="160.11" y="250.52" width="10.55" height="15.2" style="fill:#263238"></rect><rect x="160.11" y="269.7" width="10.55" height="15.2" style="fill:#263238"></rect><rect x="160.11" y="288.88" width="10.55" height="15.2" style="fill:#263238"></rect><rect x="160.11" y="308.04" width="10.55" height="15.2" style="fill:#263238"></rect><rect x="160.11" y="327.22" width="10.55" height="15.2" style="fill:#263238"></rect><rect x="160.11" y="346.4" width="10.55" height="15.2" style="fill:#263238"></rect><rect x="160.11" y="365.57" width="10.55" height="15.2" style="fill:#263238"></rect><rect x="160.11" y="384.74" width="10.55" height="15.2" style="fill:#263238"></rect><rect x="160.11" y="403.92" width="10.55" height="15.2" style="fill:#263238"></rect><rect x="177.59" y="193" width="10.55" height="15.2" style="fill:#263238"></rect><rect x="177.59" y="212.18" width="10.55" height="15.2" style="fill:#263238"></rect><rect x="177.59" y="231.35" width="10.55" height="15.2" style="fill:#263238"></rect><rect x="177.59" y="250.52" width="10.55" height="15.2" style="fill:#263238"></rect><rect x="177.59" y="269.7" width="10.55" height="15.2" style="fill:#263238"></rect><rect x="177.59" y="288.88" width="10.55" height="15.2" style="fill:#263238"></rect><rect x="177.59" y="308.04" width="10.55" height="15.2" style="fill:#263238"></rect><rect x="177.59" y="327.22" width="10.55" height="15.2" style="fill:#263238"></rect><rect x="177.59" y="346.4" width="10.55" height="15.2" style="fill:#263238"></rect><rect x="177.59" y="365.57" width="10.55" height="15.2" style="fill:#263238"></rect><rect x="177.59" y="384.74" width="10.55" height="15.2" style="fill:#263238"></rect><rect x="177.59" y="403.92" width="10.55" height="15.2" style="fill:#263238"></rect><rect x="177.59" y="193" width="10.55" height="15.2" style="fill:#263238"></rect><rect x="177.59" y="212.18" width="10.55" height="15.2" style="fill:#263238"></rect><rect x="177.59" y="231.35" width="10.55" height="15.2" style="fill:#263238"></rect><rect x="177.59" y="250.52" width="10.55" height="15.2" style="fill:#263238"></rect><rect x="177.59" y="269.7" width="10.55" height="15.2" style="fill:#263238"></rect><rect x="177.59" y="288.88" width="10.55" height="15.2" style="fill:#263238"></rect><rect x="177.59" y="308.04" width="10.55" height="15.2" style="fill:#263238"></rect><rect x="177.59" y="327.22" width="10.55" height="15.2" style="fill:#263238"></rect><rect x="177.59" y="346.4" width="10.55" height="15.2" style="fill:#263238"></rect><rect x="177.59" y="365.57" width="10.55" height="15.2" style="fill:#263238"></rect><rect x="177.59" y="384.74" width="10.55" height="15.2" style="fill:#263238"></rect><rect x="177.59" y="403.92" width="10.55" height="15.2" style="fill:#263238"></rect><polygon points="113.27 427.63 65.43 427.63 65.43 277.56 113.27 246.55 113.27 427.63" style="fill:#FFC727"></polygon><polygon points="107.12 427.63 70.81 427.63 70.81 281.76 107.12 258.23 107.12 427.63" style="fill:#FFC727"></polygon><polygon points="107.12 427.63 70.81 427.63 70.81 281.76 107.12 258.23 107.12 427.63" style="opacity:0.30000000000000004"></polygon><g style="opacity:0.30000000000000004"><rect x="74.97" y="284.28" width="32.15" height="1.16"></rect><rect x="74.97" y="293.76" width="32.15" height="1.16"></rect><rect x="74.97" y="303.24" width="32.15" height="1.16"></rect><rect x="74.97" y="312.72" width="32.15" height="1.16"></rect><rect x="74.97" y="322.2" width="32.15" height="1.16"></rect><rect x="74.97" y="331.68" width="32.15" height="1.16"></rect><rect x="74.97" y="341.16" width="32.15" height="1.16"></rect><rect x="74.97" y="350.64" width="32.15" height="1.16"></rect><rect x="74.97" y="360.12" width="32.15" height="1.16"></rect><rect x="74.97" y="369.6" width="32.15" height="1.16"></rect><rect x="74.97" y="379.08" width="32.15" height="1.16"></rect><rect x="74.97" y="388.56" width="32.15" height="1.16"></rect><rect x="74.97" y="398.04" width="32.15" height="1.16"></rect><rect x="74.97" y="407.52" width="32.15" height="1.16"></rect><rect x="74.97" y="417" width="32.15" height="1.16"></rect><rect x="74.97" y="426.48" width="32.15" height="1.16"></rect><rect x="13.86" y="349.87" width="154.37" height="1.16" transform="translate(-259.4 441.5) rotate(-90)"></rect></g><polygon points="107.12 258.23 107.12 263.45 74.97 284.28 74.97 427.63 70.82 427.63 70.82 281.75 107.12 258.23" style="fill:#FFC727"></polygon><polygon points="107.12 258.23 107.12 263.45 74.97 284.28 74.97 427.63 70.82 427.63 70.82 281.75 107.12 258.23" style="opacity:0.2"></polygon><rect x="113.27" y="246.55" width="42.15" height="181.08" style="fill:#FFC727"></rect><rect x="113.27" y="246.55" width="42.15" height="181.08" style="opacity:0.2"></rect><g style="opacity:0.2"><rect x="117.36" y="258.23" width="33.97" height="4.1"></rect><rect x="117.36" y="267.51" width="33.97" height="4.1"></rect><rect x="117.36" y="276.8" width="33.97" height="4.1"></rect><rect x="117.36" y="286.08" width="33.97" height="4.1"></rect><rect x="117.36" y="295.37" width="33.97" height="4.1"></rect><rect x="117.36" y="304.66" width="33.97" height="4.1"></rect><rect x="117.36" y="313.94" width="33.97" height="4.1"></rect><rect x="117.36" y="323.23" width="33.97" height="4.1"></rect><rect x="117.36" y="332.51" width="33.97" height="4.1"></rect><rect x="117.36" y="341.8" width="33.97" height="4.1"></rect><rect x="117.36" y="351.09" width="33.97" height="4.1"></rect><rect x="117.36" y="360.37" width="33.97" height="4.1"></rect><rect x="117.36" y="369.66" width="33.97" height="4.1"></rect><rect x="117.36" y="378.94" width="33.97" height="4.1"></rect><rect x="117.36" y="388.23" width="33.97" height="4.1"></rect><rect x="117.36" y="397.52" width="33.97" height="4.1"></rect><rect x="117.36" y="406.8" width="33.97" height="4.1"></rect><rect x="117.36" y="416.09" width="33.97" height="4.1"></rect></g><rect x="291.77" y="235.91" width="37.92" height="191.73" style="fill:#FFC727"></rect><rect x="291.77" y="235.91" width="37.92" height="191.73" style="opacity:0.2"></rect><rect x="291.77" y="229.62" width="40.19" height="6.28" transform="translate(623.73 465.53) rotate(180)" style="fill:#FFC727"></rect><rect x="291.77" y="219.81" width="34.08" height="9.81" transform="translate(617.61 449.44) rotate(180)" style="fill:#FFC727"></rect><rect x="291.77" y="219.81" width="34.08" height="9.81" transform="translate(617.61 449.44) rotate(180)" style="opacity:0.2"></rect><rect x="291.77" y="198.18" width="26.07" height="21.64" transform="translate(609.61 417.99) rotate(180)" style="fill:#FFC727"></rect><rect x="291.77" y="198.18" width="26.07" height="21.64" transform="translate(609.61 417.99) rotate(180)" style="opacity:0.30000000000000004"></rect><g style="opacity:0.30000000000000004"><rect x="295.4" y="243.17" width="5.14" height="20.17"></rect></g><g style="opacity:0.30000000000000004"><rect x="295.4" y="270.65" width="5.14" height="20.17"></rect></g><g style="opacity:0.30000000000000004"><rect x="295.4" y="298.12" width="5.14" height="20.17"></rect></g><g style="opacity:0.30000000000000004"><rect x="295.4" y="325.59" width="5.14" height="20.17"></rect></g><g style="opacity:0.30000000000000004"><rect x="295.4" y="353.07" width="5.14" height="20.17"></rect></g><g style="opacity:0.30000000000000004"><rect x="295.4" y="380.54" width="5.14" height="20.17"></rect></g><g style="opacity:0.30000000000000004"><rect x="303.91" y="243.17" width="5.14" height="20.17"></rect></g><g style="opacity:0.30000000000000004"><rect x="303.91" y="270.65" width="5.14" height="20.17"></rect></g><g style="opacity:0.30000000000000004"><rect x="303.91" y="298.12" width="5.14" height="20.17"></rect></g><g style="opacity:0.30000000000000004"><rect x="303.91" y="325.59" width="5.14" height="20.17"></rect></g><g style="opacity:0.30000000000000004"><rect x="303.91" y="353.07" width="5.14" height="20.17"></rect></g><g style="opacity:0.30000000000000004"><rect x="303.91" y="380.54" width="5.14" height="20.17"></rect></g><g style="opacity:0.30000000000000004"><rect x="312.41" y="243.17" width="5.14" height="20.17"></rect></g><g style="opacity:0.30000000000000004"><rect x="312.41" y="270.65" width="5.14" height="20.17"></rect></g><g style="opacity:0.30000000000000004"><rect x="312.41" y="298.12" width="5.14" height="20.17"></rect></g><g style="opacity:0.30000000000000004"><rect x="312.41" y="325.59" width="5.14" height="20.17"></rect></g><g style="opacity:0.30000000000000004"><rect x="312.41" y="353.07" width="5.14" height="20.17"></rect></g><g style="opacity:0.30000000000000004"><rect x="312.41" y="380.54" width="5.14" height="20.17"></rect></g><g style="opacity:0.30000000000000004"><rect x="320.91" y="243.17" width="5.14" height="20.17"></rect></g><g style="opacity:0.30000000000000004"><rect x="320.91" y="270.65" width="5.14" height="20.17"></rect></g><g style="opacity:0.30000000000000004"><rect x="320.91" y="298.12" width="5.14" height="20.17"></rect></g><g style="opacity:0.30000000000000004"><rect x="320.91" y="325.59" width="5.14" height="20.17"></rect></g><g style="opacity:0.30000000000000004"><rect x="320.91" y="353.07" width="5.14" height="20.17"></rect></g><g style="opacity:0.30000000000000004"><rect x="320.91" y="380.54" width="5.14" height="20.17"></rect></g><rect x="214.03" y="235.91" width="77.73" height="191.73" style="fill:#FFC727"></rect><rect x="217.76" y="219.81" width="74.01" height="9.81" style="fill:#FFC727"></rect><rect x="236.08" y="198.18" width="55.69" height="21.64" style="fill:#FFC727"></rect><rect x="236.08" y="198.18" width="55.69" height="21.64" style="opacity:0.2"></rect><rect x="211.71" y="229.62" width="80.06" height="6.28" style="fill:#FFC727"></rect><rect x="211.71" y="229.62" width="80.06" height="6.28" style="opacity:0.2"></rect><g style="opacity:0.30000000000000004"><rect x="221.47" y="243.17" width="10.55" height="20.17"></rect></g><g style="opacity:0.30000000000000004"><rect x="221.47" y="270.65" width="10.55" height="20.17"></rect></g><g style="opacity:0.30000000000000004"><rect x="221.47" y="298.12" width="10.55" height="20.17"></rect></g><g style="opacity:0.30000000000000004"><rect x="221.47" y="325.59" width="10.55" height="20.17"></rect></g><g style="opacity:0.30000000000000004"><rect x="221.47" y="353.07" width="10.55" height="20.17"></rect></g><g style="opacity:0.30000000000000004"><rect x="221.47" y="380.54" width="10.55" height="20.17"></rect></g><g style="opacity:0.30000000000000004"><rect x="238.91" y="243.17" width="10.55" height="20.17"></rect></g><g style="opacity:0.30000000000000004"><rect x="238.91" y="270.65" width="10.55" height="20.17"></rect></g><g style="opacity:0.30000000000000004"><rect x="238.91" y="298.12" width="10.55" height="20.17"></rect></g><g style="opacity:0.30000000000000004"><rect x="238.91" y="325.59" width="10.55" height="20.17"></rect></g><g style="opacity:0.30000000000000004"><rect x="238.91" y="353.07" width="10.55" height="20.17"></rect></g><g style="opacity:0.30000000000000004"><rect x="238.91" y="380.54" width="10.55" height="20.17"></rect></g><g style="opacity:0.30000000000000004"><rect x="256.35" y="243.17" width="10.55" height="20.17"></rect></g><g style="opacity:0.30000000000000004"><rect x="256.35" y="270.65" width="10.55" height="20.17"></rect></g><g style="opacity:0.30000000000000004"><rect x="256.35" y="298.12" width="10.55" height="20.17"></rect></g><g style="opacity:0.30000000000000004"><rect x="256.35" y="325.59" width="10.55" height="20.17"></rect></g><g style="opacity:0.30000000000000004"><rect x="256.35" y="353.07" width="10.55" height="20.17"></rect></g><g style="opacity:0.30000000000000004"><rect x="256.35" y="380.54" width="10.55" height="20.17"></rect></g><g style="opacity:0.30000000000000004"><rect x="273.78" y="243.17" width="10.55" height="20.17"></rect></g><g style="opacity:0.30000000000000004"><rect x="273.78" y="270.65" width="10.55" height="20.17"></rect></g><g style="opacity:0.30000000000000004"><rect x="273.78" y="298.12" width="10.55" height="20.17"></rect></g><g style="opacity:0.30000000000000004"><rect x="273.78" y="325.59" width="10.55" height="20.17"></rect></g><g style="opacity:0.30000000000000004"><rect x="273.78" y="353.07" width="10.55" height="20.17"></rect></g><g style="opacity:0.30000000000000004"><rect x="273.78" y="380.54" width="10.55" height="20.17"></rect></g><rect x="238.91" y="408.63" width="27.99" height="19" style="opacity:0.30000000000000004"></rect><rect x="369.57" y="318.3" width="37.92" height="109.33" style="fill:#FFC727"></rect><rect x="369.57" y="318.3" width="37.92" height="109.33" style="opacity:0.2"></rect><rect x="369.57" y="312.02" width="40.19" height="6.28" transform="translate(779.33 630.33) rotate(180)" style="fill:#FFC727"></rect><rect x="369.57" y="302.21" width="34.08" height="9.81" transform="translate(773.22 614.23) rotate(180)" style="fill:#FFC727"></rect><rect x="369.57" y="302.21" width="34.08" height="9.81" transform="translate(773.22 614.23) rotate(180)" style="opacity:0.2"></rect><g style="opacity:0.30000000000000004"><rect x="373.21" y="325.57" width="5.14" height="20.17"></rect></g><g style="opacity:0.30000000000000004"><rect x="373.21" y="353.04" width="5.14" height="20.17"></rect></g><g style="opacity:0.30000000000000004"><rect x="373.21" y="380.52" width="5.14" height="20.17"></rect></g><g style="opacity:0.30000000000000004"><rect x="381.71" y="325.57" width="5.14" height="20.17"></rect></g><g style="opacity:0.30000000000000004"><rect x="381.71" y="353.04" width="5.14" height="20.17"></rect></g><g style="opacity:0.30000000000000004"><rect x="381.71" y="380.52" width="5.14" height="20.17"></rect></g><g style="opacity:0.30000000000000004"><rect x="390.21" y="325.57" width="5.14" height="20.17"></rect></g><g style="opacity:0.30000000000000004"><rect x="390.21" y="353.04" width="5.14" height="20.17"></rect></g><g style="opacity:0.30000000000000004"><rect x="390.21" y="380.52" width="5.14" height="20.17"></rect></g><g style="opacity:0.30000000000000004"><rect x="398.71" y="325.57" width="5.14" height="20.17"></rect></g><g style="opacity:0.30000000000000004"><rect x="398.71" y="353.04" width="5.14" height="20.17"></rect></g><g style="opacity:0.30000000000000004"><rect x="398.71" y="380.52" width="5.14" height="20.17"></rect></g><rect x="291.84" y="318.3" width="77.73" height="109.33" style="fill:#FFC727"></rect><rect x="295.56" y="302.21" width="74.01" height="9.81" style="fill:#FFC727"></rect><rect x="289.51" y="312.02" width="80.06" height="6.28" style="fill:#FFC727"></rect><rect x="289.51" y="312.02" width="80.06" height="6.28" style="opacity:0.2"></rect><g style="opacity:0.30000000000000004"><rect x="299.27" y="325.57" width="10.55" height="20.17"></rect></g><g style="opacity:0.30000000000000004"><rect x="299.27" y="353.04" width="10.55" height="20.17"></rect></g><g style="opacity:0.30000000000000004"><rect x="299.27" y="380.52" width="10.55" height="20.17"></rect></g><g style="opacity:0.30000000000000004"><rect x="316.71" y="325.57" width="10.55" height="20.17"></rect></g><g style="opacity:0.30000000000000004"><rect x="316.71" y="353.04" width="10.55" height="20.17"></rect></g><g style="opacity:0.30000000000000004"><rect x="316.71" y="380.52" width="10.55" height="20.17"></rect></g><g style="opacity:0.30000000000000004"><rect x="334.15" y="325.57" width="10.55" height="20.17"></rect></g><g style="opacity:0.30000000000000004"><rect x="334.15" y="353.04" width="10.55" height="20.17"></rect></g><g style="opacity:0.30000000000000004"><rect x="334.15" y="380.52" width="10.55" height="20.17"></rect></g><g style="opacity:0.30000000000000004"><rect x="351.59" y="325.57" width="10.55" height="20.17"></rect></g><g style="opacity:0.30000000000000004"><rect x="351.59" y="353.04" width="10.55" height="20.17"></rect></g><g style="opacity:0.30000000000000004"><rect x="351.59" y="380.52" width="10.55" height="20.17"></rect></g></g></svg>