<svg xmlns="http://www.w3.org/2000/svg" viewBox="0 0 500 500"><g id="freepik--Birds--inject-38"><path d="M339.21,163.8a14.23,14.23,0,0,0-1.6-.68,6.5,6.5,0,0,0-1.74-.4,1.37,1.37,0,0,0-.55.06.56.56,0,0,0-.16.07l-.11.08-.19.16a7.6,7.6,0,0,0-.63.64c-.4.44-.75.9-1.1,1.37l.44-.15a13.53,13.53,0,0,0-1.79-.37,7,7,0,0,0-.93-.07,2.77,2.77,0,0,0-.49,0,1.47,1.47,0,0,0-.27.06,1.66,1.66,0,0,0-.27.13,3.21,3.21,0,0,0-.7.67c-.19.24-.36.49-.53.75a11.42,11.42,0,0,0-.83,1.59c.39-.46.76-.92,1.15-1.36.19-.21.39-.43.6-.62a2.76,2.76,0,0,1,.63-.49,1.59,1.59,0,0,1,.69-.07,6.07,6.07,0,0,1,.84.12c.56.1,1.13.24,1.68.38l.27.08.16-.23c.32-.46.67-.91,1-1.35.17-.22.35-.43.53-.62l.14-.13.07-.05,0,0a1,1,0,0,1,.31-.06,8.77,8.77,0,0,1,1.65.16C338.08,163.58,338.64,163.7,339.21,163.8Z" style="fill:#263238"></path><path d="M332.92,180.82a18.67,18.67,0,0,0-2.16-1.47,10,10,0,0,0-2.45-1.11,2.49,2.49,0,0,0-.81-.07,1.54,1.54,0,0,0-.27.07l-.18.08-.32.17c-.4.24-.76.5-1.12.76-.71.54-1.35,1.11-2,1.7l.68-.09a19,19,0,0,0-2.5-1.07,9.94,9.94,0,0,0-1.35-.37,4.4,4.4,0,0,0-.74-.1,2.88,2.88,0,0,0-.41,0,3.39,3.39,0,0,0-.43.11,4.57,4.57,0,0,0-1.23.79,9.8,9.8,0,0,0-1,.94,16.79,16.79,0,0,0-1.69,2.09c.7-.56,1.38-1.13,2.08-1.65.35-.27.7-.52,1.06-.75a4.43,4.43,0,0,1,1.07-.53,2.48,2.48,0,0,1,1,.1,10.46,10.46,0,0,1,1.19.41c.8.31,1.6.69,2.36,1.06l.38.2.3-.29c.61-.58,1.25-1.15,1.89-1.69a11,11,0,0,1,1-.75,1.58,1.58,0,0,1,.24-.15l.11-.06s0,0,0,0a1.22,1.22,0,0,1,.47,0,12.48,12.48,0,0,1,2.37.71C331.31,180.16,332.11,180.5,332.92,180.82Z" style="fill:#263238"></path><path d="M158.67,141.45a14.09,14.09,0,0,0-1.47-.94,6.81,6.81,0,0,0-1.66-.68,1.54,1.54,0,0,0-.54,0,.61.61,0,0,0-.18,0l-.12.06-.21.12c-.26.17-.5.35-.73.53-.46.37-.88.77-1.3,1.18l.45-.08a13,13,0,0,0-1.7-.66,6.37,6.37,0,0,0-.91-.22,3.87,3.87,0,0,0-.49-.05l-.27,0a2.46,2.46,0,0,0-.29.09,2.77,2.77,0,0,0-.8.55,7.73,7.73,0,0,0-.64.64,10.61,10.61,0,0,0-1.08,1.44c.45-.39.89-.79,1.35-1.15.23-.18.45-.36.69-.52a3.23,3.23,0,0,1,.7-.38,1.59,1.59,0,0,1,.7.05,5.7,5.7,0,0,1,.8.25c.54.19,1.08.42,1.6.66l.26.11.19-.19c.39-.41.81-.8,1.22-1.17a7.21,7.21,0,0,1,.63-.52l.16-.11.07,0h0a.73.73,0,0,1,.31,0,9.07,9.07,0,0,1,1.6.43C157.58,141,158.12,141.25,158.67,141.45Z" style="fill:#263238"></path><path d="M172.93,139.14a18.61,18.61,0,0,0-1.61-2,10.26,10.26,0,0,0-2-1.78,2.49,2.49,0,0,0-.75-.31h-.28l-.19,0-.36.07c-.46.11-.88.25-1.3.39-.83.3-1.62.66-2.42,1l.68.11a20.68,20.68,0,0,0-2.08-1.77,11.34,11.34,0,0,0-1.18-.75,5.91,5.91,0,0,0-.67-.31,2.6,2.6,0,0,0-.4-.1,3.25,3.25,0,0,0-.44,0,4.85,4.85,0,0,0-1.41.39c-.43.18-.83.39-1.23.6a17.81,17.81,0,0,0-2.23,1.51c.84-.33,1.65-.68,2.48-1a11.12,11.12,0,0,1,1.24-.39,4.29,4.29,0,0,1,1.17-.2,2.57,2.57,0,0,1,1,.41,11.45,11.45,0,0,1,1,.75c.67.53,1.32,1.12,1.94,1.71l.31.3.37-.19c.75-.38,1.53-.73,2.3-1a9,9,0,0,1,1.15-.43l.27-.08.13,0h0a1.31,1.31,0,0,1,.45.14,12.36,12.36,0,0,1,2,1.39C171.6,138,172.26,138.59,172.93,139.14Z" style="fill:#263238"></path><path d="M353.27,176.64a17.47,17.47,0,0,0-1.62-2,9.63,9.63,0,0,0-2-1.78,2.07,2.07,0,0,0-.75-.31,1.23,1.23,0,0,0-.28,0l-.19,0a2.09,2.09,0,0,0-.36.07,10.35,10.35,0,0,0-1.3.39c-.83.3-1.62.65-2.42,1l.68.11a19.45,19.45,0,0,0-2.08-1.77,8.77,8.77,0,0,0-1.18-.75,4.57,4.57,0,0,0-.67-.31c-.12,0-.27-.07-.4-.11a3.24,3.24,0,0,0-.44,0,4.85,4.85,0,0,0-1.41.38,12.79,12.79,0,0,0-1.23.61,17.74,17.74,0,0,0-2.23,1.5c.84-.33,1.65-.67,2.48-1,.41-.15.82-.29,1.24-.4a4.25,4.25,0,0,1,1.17-.19,2.42,2.42,0,0,1,1,.41,9.63,9.63,0,0,1,1,.74c.67.53,1.32,1.13,1.94,1.71l.31.3.37-.19c.75-.37,1.53-.72,2.3-1a10.74,10.74,0,0,1,1.15-.43c.09,0,.19-.06.27-.07l.13,0s0,0,0,0a1.31,1.31,0,0,1,.45.14,12.36,12.36,0,0,1,2.05,1.39C351.94,175.54,352.6,176.1,353.27,176.64Z" style="fill:#263238"></path></g></svg>