<svg xmlns="http://www.w3.org/2000/svg" viewBox="0 0 500 500"><g id="freepik--background-complete--inject-38"><path d="M454.71,190.21h-85.6S377.6,167,390.66,167s17.15,16,17.15,16,8.81-8.69,16.05-8.69,13.54,11.49,13.54,11.49S447.63,179.65,454.71,190.21Z" style="fill:#ebebeb"></path><path d="M389.11,99.42h-40s8.94-13,16-13,9.12,8.64,9.12,8.64,5-4,9.58-3.31S389.11,99.42,389.11,99.42Z" style="fill:#ebebeb"></path><path d="M123.21,158.46H45.29S56,134.64,67.38,133.15s16.87,17.7,16.87,17.7,7.36-6.78,13.15-6.78S107.66,153,107.66,153,119.24,146.88,123.21,158.46Z" style="fill:#ebebeb"></path><path d="M179.93,69.47H127.29s9-17.26,18.85-17.52,15,13.07,15,13.07S176.37,52.77,179.93,69.47Z" style="fill:#ebebeb"></path><path d="M153.61,188.66H118.08s6.11-11.65,12.73-11.81,10.1,8.81,10.1,8.81S151.21,177.4,153.61,188.66Z" style="fill:#ebebeb"></path><rect x="317.05" y="207.76" width="43.33" height="227.14" style="fill:#dbdbdb"></rect><rect x="323.78" y="215.14" width="8.42" height="8.67" style="fill:#ebebeb"></rect><rect x="334.55" y="215.14" width="8.42" height="8.67" style="fill:#ebebeb"></rect><rect x="323.78" y="229.86" width="8.42" height="8.67" style="fill:#ebebeb"></rect><rect x="334.55" y="229.86" width="8.42" height="8.67" style="fill:#ebebeb"></rect><rect x="323.78" y="244.59" width="8.42" height="8.67" style="fill:#ebebeb"></rect><rect x="334.55" y="244.59" width="8.42" height="8.67" style="fill:#ebebeb"></rect><rect x="323.78" y="259.31" width="8.42" height="8.67" style="fill:#ebebeb"></rect><rect x="334.55" y="259.31" width="8.42" height="8.67" style="fill:#ebebeb"></rect><rect x="323.78" y="274.04" width="8.42" height="8.67" style="fill:#ebebeb"></rect><rect x="334.55" y="274.04" width="8.42" height="8.67" style="fill:#ebebeb"></rect><rect x="323.78" y="288.76" width="8.42" height="8.67" style="fill:#ebebeb"></rect><rect x="334.55" y="288.76" width="8.42" height="8.67" style="fill:#ebebeb"></rect><rect x="323.78" y="303.49" width="8.42" height="8.67" style="fill:#ebebeb"></rect><rect x="334.55" y="303.49" width="8.42" height="8.67" style="fill:#ebebeb"></rect><rect x="323.78" y="318.21" width="8.42" height="8.67" style="fill:#ebebeb"></rect><rect x="334.55" y="318.21" width="8.42" height="8.67" style="fill:#ebebeb"></rect><rect x="323.78" y="332.94" width="8.42" height="8.67" style="fill:#ebebeb"></rect><rect x="334.55" y="332.94" width="8.42" height="8.67" style="fill:#ebebeb"></rect><rect x="323.78" y="347.66" width="8.42" height="8.67" style="fill:#ebebeb"></rect><rect x="334.55" y="347.66" width="8.42" height="8.67" style="fill:#ebebeb"></rect><rect x="323.78" y="362.39" width="8.42" height="8.67" style="fill:#ebebeb"></rect><rect x="334.55" y="362.39" width="8.42" height="8.67" style="fill:#ebebeb"></rect><rect x="323.78" y="377.11" width="8.42" height="8.67" style="fill:#ebebeb"></rect><rect x="334.55" y="377.11" width="8.42" height="8.67" style="fill:#ebebeb"></rect><rect x="323.78" y="391.84" width="8.42" height="8.67" style="fill:#ebebeb"></rect><rect x="334.55" y="391.84" width="8.42" height="8.67" style="fill:#ebebeb"></rect><rect x="323.78" y="406.56" width="8.42" height="8.67" style="fill:#ebebeb"></rect><rect x="345.23" y="406.56" width="8.42" height="8.67" transform="translate(698.89 821.79) rotate(180)" style="fill:#ebebeb"></rect><rect x="345.23" y="391.84" width="8.42" height="8.67" transform="translate(698.89 792.34) rotate(180)" style="fill:#ebebeb"></rect><rect x="345.23" y="377.11" width="8.42" height="8.67" transform="translate(698.89 762.89) rotate(180)" style="fill:#ebebeb"></rect><rect x="345.23" y="362.39" width="8.42" height="8.67" transform="translate(698.89 733.44) rotate(180)" style="fill:#ebebeb"></rect><rect x="345.23" y="347.66" width="8.42" height="8.67" transform="translate(698.89 703.99) rotate(180)" style="fill:#ebebeb"></rect><rect x="345.23" y="332.94" width="8.42" height="8.67" transform="translate(698.89 674.54) rotate(180)" style="fill:#ebebeb"></rect><rect x="345.23" y="318.21" width="8.42" height="8.67" transform="translate(698.89 645.09) rotate(180)" style="fill:#ebebeb"></rect><rect x="345.23" y="303.49" width="8.42" height="8.67" transform="translate(698.89 615.64) rotate(180)" style="fill:#ebebeb"></rect><rect x="345.23" y="288.76" width="8.42" height="8.67" transform="translate(698.89 586.19) rotate(180)" style="fill:#ebebeb"></rect><rect x="345.23" y="274.04" width="8.42" height="8.67" transform="translate(698.89 556.74) rotate(180)" style="fill:#ebebeb"></rect><rect x="345.23" y="259.31" width="8.42" height="8.67" transform="translate(698.89 527.29) rotate(180)" style="fill:#ebebeb"></rect><rect x="345.23" y="244.59" width="8.42" height="8.67" transform="translate(698.89 497.84) rotate(180)" style="fill:#ebebeb"></rect><rect x="345.23" y="229.86" width="8.42" height="8.67" transform="translate(698.89 468.39) rotate(180)" style="fill:#ebebeb"></rect><rect x="345.23" y="215.14" width="8.42" height="8.67" transform="translate(698.89 438.94) rotate(180)" style="fill:#ebebeb"></rect><rect x="334.55" y="406.56" width="8.42" height="8.67" style="fill:#ebebeb"></rect><rect x="360.38" y="207.76" width="34.16" height="227.14" style="fill:#a6a6a6"></rect><rect x="384.07" y="406.56" width="6.96" height="8.67" transform="translate(775.09 821.79) rotate(180)" style="fill:#c7c7c7"></rect><rect x="375.17" y="406.56" width="6.96" height="8.67" transform="translate(757.29 821.79) rotate(180)" style="fill:#c7c7c7"></rect><rect x="384.07" y="391.84" width="6.96" height="8.67" transform="translate(775.09 792.34) rotate(180)" style="fill:#c7c7c7"></rect><rect x="375.17" y="391.84" width="6.96" height="8.67" transform="translate(757.29 792.34) rotate(180)" style="fill:#c7c7c7"></rect><rect x="384.07" y="377.11" width="6.96" height="8.67" transform="translate(775.09 762.89) rotate(180)" style="fill:#c7c7c7"></rect><rect x="375.17" y="377.11" width="6.96" height="8.67" transform="translate(757.29 762.89) rotate(180)" style="fill:#c7c7c7"></rect><rect x="384.07" y="362.39" width="6.96" height="8.67" transform="translate(775.09 733.44) rotate(180)" style="fill:#c7c7c7"></rect><rect x="375.17" y="362.39" width="6.96" height="8.67" transform="translate(757.29 733.44) rotate(180)" style="fill:#c7c7c7"></rect><rect x="384.07" y="347.66" width="6.96" height="8.67" transform="translate(775.09 703.99) rotate(180)" style="fill:#c7c7c7"></rect><rect x="375.17" y="347.66" width="6.96" height="8.67" transform="translate(757.29 703.99) rotate(180)" style="fill:#c7c7c7"></rect><rect x="384.07" y="332.94" width="6.96" height="8.67" transform="translate(775.09 674.54) rotate(180)" style="fill:#c7c7c7"></rect><rect x="375.17" y="332.94" width="6.96" height="8.67" transform="translate(757.29 674.54) rotate(180)" style="fill:#c7c7c7"></rect><rect x="384.07" y="318.21" width="6.96" height="8.67" transform="translate(775.09 645.09) rotate(180)" style="fill:#c7c7c7"></rect><rect x="375.17" y="318.21" width="6.96" height="8.67" transform="translate(757.29 645.09) rotate(180)" style="fill:#c7c7c7"></rect><rect x="384.07" y="303.49" width="6.96" height="8.67" transform="translate(775.09 615.64) rotate(180)" style="fill:#c7c7c7"></rect><rect x="375.17" y="303.49" width="6.96" height="8.67" transform="translate(757.29 615.64) rotate(180)" style="fill:#c7c7c7"></rect><rect x="384.07" y="288.76" width="6.96" height="8.67" transform="translate(775.09 586.19) rotate(180)" style="fill:#c7c7c7"></rect><rect x="375.17" y="288.76" width="6.96" height="8.67" transform="translate(757.29 586.19) rotate(180)" style="fill:#c7c7c7"></rect><rect x="384.07" y="274.04" width="6.96" height="8.67" transform="translate(775.09 556.74) rotate(180)" style="fill:#c7c7c7"></rect><rect x="375.17" y="274.04" width="6.96" height="8.67" transform="translate(757.29 556.74) rotate(180)" style="fill:#c7c7c7"></rect><rect x="384.07" y="259.31" width="6.96" height="8.67" transform="translate(775.09 527.29) rotate(180)" style="fill:#c7c7c7"></rect><rect x="375.17" y="259.31" width="6.96" height="8.67" transform="translate(757.29 527.29) rotate(180)" style="fill:#c7c7c7"></rect><rect x="384.07" y="244.59" width="6.96" height="8.67" transform="translate(775.09 497.84) rotate(180)" style="fill:#c7c7c7"></rect><rect x="375.17" y="244.59" width="6.96" height="8.67" transform="translate(757.29 497.84) rotate(180)" style="fill:#c7c7c7"></rect><rect x="384.07" y="229.86" width="6.96" height="8.67" transform="translate(775.09 468.39) rotate(180)" style="fill:#c7c7c7"></rect><rect x="375.17" y="229.86" width="6.96" height="8.67" transform="translate(757.29 468.39) rotate(180)" style="fill:#c7c7c7"></rect><rect x="384.07" y="215.14" width="6.96" height="8.67" transform="translate(775.09 438.94) rotate(180)" style="fill:#c7c7c7"></rect><rect x="366.35" y="215.14" width="6.96" height="8.67" style="fill:#c7c7c7"></rect><rect x="366.35" y="229.86" width="6.96" height="8.67" style="fill:#c7c7c7"></rect><rect x="366.35" y="244.59" width="6.96" height="8.67" style="fill:#c7c7c7"></rect><rect x="366.35" y="259.31" width="6.96" height="8.67" style="fill:#c7c7c7"></rect><rect x="366.35" y="274.04" width="6.96" height="8.67" style="fill:#c7c7c7"></rect><rect x="366.35" y="288.76" width="6.96" height="8.67" style="fill:#c7c7c7"></rect><rect x="366.35" y="303.49" width="6.96" height="8.67" style="fill:#c7c7c7"></rect><rect x="366.35" y="318.21" width="6.96" height="8.67" style="fill:#c7c7c7"></rect><rect x="366.35" y="332.94" width="6.96" height="8.67" style="fill:#c7c7c7"></rect><rect x="366.35" y="347.66" width="6.96" height="8.67" style="fill:#c7c7c7"></rect><rect x="366.35" y="362.39" width="6.96" height="8.67" style="fill:#c7c7c7"></rect><rect x="366.35" y="377.11" width="6.96" height="8.67" style="fill:#c7c7c7"></rect><rect x="366.35" y="391.84" width="6.96" height="8.67" style="fill:#c7c7c7"></rect><rect x="366.35" y="406.56" width="6.96" height="8.67" style="fill:#c7c7c7"></rect><rect x="375.17" y="215.14" width="6.96" height="8.67" transform="translate(757.29 438.94) rotate(180)" style="fill:#c7c7c7"></rect><rect x="95.18" y="202.8" width="45.2" height="232.1" style="fill:#ebebeb"></rect><rect x="94.09" y="198.18" width="46.29" height="4.62" style="fill:#c7c7c7"></rect><rect x="99.26" y="209.61" width="4.58" height="225.29" style="fill:#fff"></rect><rect x="107.38" y="209.61" width="4.58" height="225.29" style="fill:#fff"></rect><rect x="115.49" y="209.61" width="4.58" height="225.29" style="fill:#fff"></rect><rect x="123.6" y="209.61" width="4.58" height="225.29" style="fill:#fff"></rect><rect x="131.71" y="209.61" width="4.58" height="225.29" style="fill:#fff"></rect><rect x="99.26" y="215.45" width="4.58" height="9.12" style="fill:#ebebeb"></rect><rect x="107.38" y="215.45" width="4.58" height="9.12" style="fill:#ebebeb"></rect><rect x="115.49" y="215.45" width="4.58" height="9.12" style="fill:#ebebeb"></rect><rect x="123.6" y="215.45" width="4.58" height="9.12" style="fill:#ebebeb"></rect><rect x="131.71" y="215.45" width="4.58" height="9.12" style="fill:#ebebeb"></rect><rect x="99.26" y="230.28" width="4.58" height="9.12" style="fill:#ebebeb"></rect><rect x="107.38" y="230.28" width="4.58" height="9.12" style="fill:#ebebeb"></rect><rect x="115.49" y="230.28" width="4.58" height="9.12" style="fill:#ebebeb"></rect><rect x="123.6" y="230.28" width="4.58" height="9.12" style="fill:#ebebeb"></rect><rect x="131.71" y="230.28" width="4.58" height="9.12" style="fill:#ebebeb"></rect><rect x="99.26" y="245.11" width="4.58" height="9.12" style="fill:#ebebeb"></rect><rect x="107.38" y="245.11" width="4.58" height="9.12" style="fill:#ebebeb"></rect><rect x="115.49" y="245.11" width="4.58" height="9.12" style="fill:#ebebeb"></rect><rect x="123.6" y="245.11" width="4.58" height="9.12" style="fill:#ebebeb"></rect><rect x="131.71" y="245.11" width="4.58" height="9.12" style="fill:#ebebeb"></rect><rect x="99.26" y="259.94" width="4.58" height="9.12" style="fill:#ebebeb"></rect><rect x="107.38" y="259.94" width="4.58" height="9.12" style="fill:#ebebeb"></rect><rect x="115.49" y="259.94" width="4.58" height="9.12" style="fill:#ebebeb"></rect><rect x="123.6" y="259.94" width="4.58" height="9.12" style="fill:#ebebeb"></rect><rect x="131.71" y="259.94" width="4.58" height="9.12" style="fill:#ebebeb"></rect><rect x="99.26" y="274.77" width="4.58" height="9.12" style="fill:#ebebeb"></rect><rect x="107.38" y="274.77" width="4.58" height="9.12" style="fill:#ebebeb"></rect><rect x="115.49" y="274.77" width="4.58" height="9.12" style="fill:#ebebeb"></rect><rect x="123.6" y="274.77" width="4.58" height="9.12" style="fill:#ebebeb"></rect><rect x="131.71" y="274.77" width="4.58" height="9.12" style="fill:#ebebeb"></rect><rect x="99.26" y="289.59" width="4.58" height="9.12" style="fill:#ebebeb"></rect><rect x="107.38" y="289.59" width="4.58" height="9.12" style="fill:#ebebeb"></rect><rect x="115.49" y="289.59" width="4.58" height="9.12" style="fill:#ebebeb"></rect><rect x="123.6" y="289.59" width="4.58" height="9.12" style="fill:#ebebeb"></rect><rect x="131.71" y="289.59" width="4.58" height="9.12" style="fill:#ebebeb"></rect><rect x="99.26" y="304.42" width="4.58" height="9.12" style="fill:#ebebeb"></rect><rect x="107.38" y="304.42" width="4.58" height="9.12" style="fill:#ebebeb"></rect><rect x="115.49" y="304.42" width="4.58" height="9.12" style="fill:#ebebeb"></rect><rect x="123.6" y="304.42" width="4.58" height="9.12" style="fill:#ebebeb"></rect><rect x="131.71" y="304.42" width="4.58" height="9.12" style="fill:#ebebeb"></rect><rect x="99.26" y="319.25" width="4.58" height="9.12" style="fill:#ebebeb"></rect><rect x="107.38" y="319.25" width="4.58" height="9.12" style="fill:#ebebeb"></rect><rect x="115.49" y="319.25" width="4.58" height="9.12" style="fill:#ebebeb"></rect><rect x="123.6" y="319.25" width="4.58" height="9.12" style="fill:#ebebeb"></rect><rect x="131.71" y="319.25" width="4.58" height="9.12" style="fill:#ebebeb"></rect><rect x="99.26" y="334.08" width="4.58" height="9.12" style="fill:#ebebeb"></rect><rect x="107.38" y="334.08" width="4.58" height="9.12" style="fill:#ebebeb"></rect><rect x="115.49" y="334.08" width="4.58" height="9.12" style="fill:#ebebeb"></rect><rect x="123.6" y="334.08" width="4.58" height="9.12" style="fill:#ebebeb"></rect><rect x="131.71" y="334.08" width="4.58" height="9.12" style="fill:#ebebeb"></rect><rect x="99.26" y="348.91" width="4.58" height="9.12" style="fill:#ebebeb"></rect><rect x="107.38" y="348.91" width="4.58" height="9.12" style="fill:#ebebeb"></rect><rect x="115.49" y="348.91" width="4.58" height="9.12" style="fill:#ebebeb"></rect><rect x="123.6" y="348.91" width="4.58" height="9.12" style="fill:#ebebeb"></rect><rect x="131.71" y="348.91" width="4.58" height="9.12" style="fill:#ebebeb"></rect><rect x="99.26" y="363.73" width="4.58" height="9.12" style="fill:#ebebeb"></rect><rect x="107.38" y="363.73" width="4.58" height="9.12" style="fill:#ebebeb"></rect><rect x="115.49" y="363.73" width="4.58" height="9.12" style="fill:#ebebeb"></rect><rect x="123.6" y="363.73" width="4.58" height="9.12" style="fill:#ebebeb"></rect><rect x="131.71" y="363.73" width="4.58" height="9.12" style="fill:#ebebeb"></rect><rect x="99.26" y="378.56" width="4.58" height="9.12" style="fill:#ebebeb"></rect><rect x="107.38" y="378.56" width="4.58" height="9.12" style="fill:#ebebeb"></rect><rect x="115.49" y="378.56" width="4.58" height="9.12" style="fill:#ebebeb"></rect><rect x="123.6" y="378.56" width="4.58" height="9.12" style="fill:#ebebeb"></rect><rect x="131.71" y="378.56" width="4.58" height="9.12" style="fill:#ebebeb"></rect><rect x="99.26" y="393.39" width="4.58" height="9.12" style="fill:#ebebeb"></rect><rect x="107.38" y="393.39" width="4.58" height="9.12" style="fill:#ebebeb"></rect><rect x="115.49" y="393.39" width="4.58" height="9.12" style="fill:#ebebeb"></rect><rect x="123.6" y="393.39" width="4.58" height="9.12" style="fill:#ebebeb"></rect><rect x="131.71" y="393.39" width="4.58" height="9.12" style="fill:#ebebeb"></rect><rect x="99.26" y="408.22" width="4.58" height="26.69" style="fill:#ebebeb"></rect><rect x="107.38" y="408.22" width="4.58" height="26.69" style="fill:#ebebeb"></rect><rect x="115.49" y="408.22" width="4.58" height="26.69" style="fill:#ebebeb"></rect><rect x="123.6" y="408.22" width="4.58" height="26.69" style="fill:#ebebeb"></rect><rect x="131.71" y="408.22" width="4.58" height="26.69" style="fill:#ebebeb"></rect><rect x="140.38" y="202.8" width="29.02" height="232.1" style="fill:#dbdbdb"></rect><rect x="140.38" y="198.18" width="30.28" height="4.62" style="fill:#c7c7c7"></rect><rect x="144.47" y="209.61" width="4.58" height="225.29" style="fill:#c7c7c7"></rect><rect x="152.58" y="209.61" width="4.58" height="225.29" style="fill:#c7c7c7"></rect><rect x="160.69" y="209.61" width="4.58" height="225.29" style="fill:#c7c7c7"></rect><rect x="144.47" y="215.45" width="4.58" height="9.12" style="fill:#dbdbdb"></rect><rect x="152.58" y="215.45" width="4.58" height="9.12" style="fill:#dbdbdb"></rect><rect x="160.69" y="215.45" width="4.58" height="9.12" style="fill:#dbdbdb"></rect><rect x="144.47" y="230.28" width="4.58" height="9.12" style="fill:#dbdbdb"></rect><rect x="152.58" y="230.28" width="4.58" height="9.12" style="fill:#dbdbdb"></rect><rect x="160.69" y="230.28" width="4.58" height="9.12" style="fill:#dbdbdb"></rect><rect x="144.47" y="245.11" width="4.58" height="9.12" style="fill:#dbdbdb"></rect><rect x="152.58" y="245.11" width="4.58" height="9.12" style="fill:#dbdbdb"></rect><rect x="160.69" y="245.11" width="4.58" height="9.12" style="fill:#dbdbdb"></rect><rect x="144.47" y="259.94" width="4.58" height="9.12" style="fill:#dbdbdb"></rect><rect x="152.58" y="259.94" width="4.58" height="9.12" style="fill:#dbdbdb"></rect><rect x="160.69" y="259.94" width="4.58" height="9.12" style="fill:#dbdbdb"></rect><rect x="144.47" y="274.77" width="4.58" height="9.12" style="fill:#dbdbdb"></rect><rect x="152.58" y="274.77" width="4.58" height="9.12" style="fill:#dbdbdb"></rect><rect x="160.69" y="274.77" width="4.58" height="9.12" style="fill:#dbdbdb"></rect><rect x="144.47" y="289.59" width="4.58" height="9.12" style="fill:#dbdbdb"></rect><rect x="152.58" y="289.59" width="4.58" height="9.12" style="fill:#dbdbdb"></rect><rect x="160.69" y="289.59" width="4.58" height="9.12" style="fill:#dbdbdb"></rect><rect x="144.47" y="304.42" width="4.58" height="9.12" style="fill:#dbdbdb"></rect><rect x="152.58" y="304.42" width="4.58" height="9.12" style="fill:#dbdbdb"></rect><rect x="160.69" y="304.42" width="4.58" height="9.12" style="fill:#dbdbdb"></rect><rect x="144.47" y="319.25" width="4.58" height="9.12" style="fill:#dbdbdb"></rect><rect x="152.58" y="319.25" width="4.58" height="9.12" style="fill:#dbdbdb"></rect><rect x="160.69" y="319.25" width="4.58" height="9.12" style="fill:#dbdbdb"></rect><rect x="144.47" y="334.08" width="4.58" height="9.12" style="fill:#dbdbdb"></rect><rect x="152.58" y="334.08" width="4.58" height="9.12" style="fill:#dbdbdb"></rect><rect x="160.69" y="334.08" width="4.58" height="9.12" style="fill:#dbdbdb"></rect><rect x="144.47" y="348.91" width="4.58" height="9.12" style="fill:#dbdbdb"></rect><rect x="152.58" y="348.91" width="4.58" height="9.12" style="fill:#dbdbdb"></rect><rect x="160.69" y="348.91" width="4.58" height="9.12" style="fill:#dbdbdb"></rect><rect x="144.47" y="363.73" width="4.58" height="9.12" style="fill:#dbdbdb"></rect><rect x="152.58" y="363.73" width="4.58" height="9.12" style="fill:#dbdbdb"></rect><rect x="160.69" y="363.73" width="4.58" height="9.12" style="fill:#dbdbdb"></rect><rect x="144.47" y="378.56" width="4.58" height="9.12" style="fill:#dbdbdb"></rect><rect x="152.58" y="378.56" width="4.58" height="9.12" style="fill:#dbdbdb"></rect><rect x="160.69" y="378.56" width="4.58" height="9.12" style="fill:#dbdbdb"></rect><rect x="144.47" y="393.39" width="4.58" height="9.12" style="fill:#dbdbdb"></rect><rect x="152.58" y="393.39" width="4.58" height="9.12" style="fill:#dbdbdb"></rect><rect x="160.69" y="393.39" width="4.58" height="9.12" style="fill:#dbdbdb"></rect><rect x="144.47" y="408.22" width="4.58" height="26.69" style="fill:#dbdbdb"></rect><rect x="152.58" y="408.22" width="4.58" height="26.69" style="fill:#dbdbdb"></rect><rect x="160.69" y="408.22" width="4.58" height="26.69" style="fill:#dbdbdb"></rect><rect x="44.72" y="272.32" width="42.87" height="162.59" style="fill:#ebebeb"></rect><rect x="50.81" y="261.53" width="36.77" height="10.78" style="fill:#c7c7c7"></rect><rect x="49.42" y="277.94" width="33.47" height="121.54" style="fill:#dbdbdb"></rect><rect x="49.42" y="289.54" width="33.47" height="2.87" style="fill:#fff"></rect><rect x="49.42" y="301.44" width="33.47" height="2.87" style="fill:#fff"></rect><rect x="49.42" y="313.34" width="33.47" height="2.87" style="fill:#fff"></rect><rect x="49.42" y="325.23" width="33.47" height="2.87" style="fill:#fff"></rect><rect x="49.42" y="337.13" width="33.47" height="2.87" style="fill:#fff"></rect><rect x="49.42" y="349.03" width="33.47" height="2.87" style="fill:#fff"></rect><rect x="49.42" y="360.92" width="33.47" height="2.87" style="fill:#fff"></rect><rect x="49.42" y="372.82" width="33.47" height="2.87" style="fill:#fff"></rect><rect x="49.42" y="384.72" width="33.47" height="2.87" style="fill:#fff"></rect><rect x="49.42" y="396.62" width="33.47" height="2.87" style="fill:#fff"></rect><rect x="87.59" y="272.32" width="26.85" height="162.59" style="fill:#dbdbdb"></rect><rect x="87.59" y="261.53" width="22.82" height="10.78" style="fill:#a6a6a6"></rect><rect x="91.29" y="277.94" width="20.65" height="121.54" style="fill:#c7c7c7"></rect><rect x="91.29" y="289.54" width="20.65" height="2.87" style="fill:#fff"></rect><rect x="91.29" y="301.44" width="20.65" height="2.87" style="fill:#fff"></rect><rect x="91.29" y="313.34" width="20.65" height="2.87" style="fill:#fff"></rect><rect x="91.29" y="325.23" width="20.65" height="2.87" style="fill:#fff"></rect><rect x="91.29" y="337.13" width="20.65" height="2.87" style="fill:#fff"></rect><rect x="91.29" y="349.03" width="20.65" height="2.87" style="fill:#fff"></rect><rect x="91.29" y="360.92" width="20.65" height="2.87" style="fill:#fff"></rect><rect x="91.29" y="372.82" width="20.65" height="2.87" style="fill:#fff"></rect><rect x="91.29" y="384.72" width="20.65" height="2.87" style="fill:#fff"></rect><rect x="91.29" y="396.62" width="20.65" height="2.87" style="fill:#fff"></rect><rect x="397.04" y="275.06" width="22.9" height="27.05" style="fill:#dbdbdb"></rect><rect x="419.94" y="275.06" width="14.52" height="28.04" style="fill:#c7c7c7"></rect><rect x="421.01" y="287" width="14.41" height="16.1" style="fill:#dbdbdb"></rect><rect x="435.42" y="287" width="8.99" height="16.1" style="fill:#c7c7c7"></rect><rect x="388.26" y="300.35" width="37.02" height="134.56" style="fill:#ebebeb"></rect><rect x="392.49" y="306.13" width="11.64" height="4.76" style="fill:#fff"></rect><rect x="407.38" y="306.13" width="11.64" height="4.76" style="fill:#fff"></rect><rect x="392.49" y="314.21" width="11.64" height="4.76" style="fill:#fff"></rect><rect x="407.38" y="314.21" width="11.64" height="4.76" style="fill:#fff"></rect><rect x="392.49" y="322.28" width="11.64" height="4.76" style="fill:#fff"></rect><rect x="407.38" y="322.28" width="11.64" height="4.76" style="fill:#fff"></rect><rect x="392.49" y="330.36" width="11.64" height="4.76" style="fill:#fff"></rect><rect x="407.38" y="330.36" width="11.64" height="4.76" style="fill:#fff"></rect><rect x="392.49" y="338.44" width="11.64" height="4.76" style="fill:#fff"></rect><rect x="407.38" y="338.44" width="11.64" height="4.76" style="fill:#fff"></rect><rect x="392.49" y="346.51" width="11.64" height="4.76" style="fill:#fff"></rect><rect x="407.38" y="346.51" width="11.64" height="4.76" style="fill:#fff"></rect><rect x="392.49" y="354.59" width="11.64" height="4.76" style="fill:#fff"></rect><rect x="407.38" y="354.59" width="11.64" height="4.76" style="fill:#fff"></rect><rect x="392.49" y="362.67" width="11.64" height="4.76" style="fill:#fff"></rect><rect x="407.38" y="362.67" width="11.64" height="4.76" style="fill:#fff"></rect><rect x="392.49" y="370.74" width="11.64" height="4.76" style="fill:#fff"></rect><rect x="407.38" y="370.74" width="11.64" height="4.76" style="fill:#fff"></rect><rect x="392.49" y="378.82" width="11.64" height="4.76" style="fill:#fff"></rect><rect x="407.38" y="378.82" width="11.64" height="4.76" style="fill:#fff"></rect><rect x="392.49" y="386.9" width="11.64" height="4.76" style="fill:#fff"></rect><rect x="407.38" y="386.9" width="11.64" height="4.76" style="fill:#fff"></rect><rect x="392.49" y="394.97" width="11.64" height="4.76" style="fill:#fff"></rect><rect x="407.38" y="394.97" width="11.64" height="4.76" style="fill:#fff"></rect><rect x="392.49" y="403.05" width="11.64" height="4.76" style="fill:#fff"></rect><rect x="407.38" y="403.05" width="11.64" height="4.76" style="fill:#fff"></rect><rect x="392.49" y="411.12" width="11.64" height="4.76" style="fill:#fff"></rect><rect x="407.38" y="411.12" width="11.64" height="4.76" style="fill:#fff"></rect><rect x="425.28" y="300.35" width="30" height="134.56" style="fill:#c7c7c7"></rect><rect x="442.72" y="411.12" width="9.56" height="4.76" transform="translate(894.99 827.01) rotate(180)" style="fill:#ebebeb"></rect><rect x="430.49" y="411.12" width="9.56" height="4.76" transform="translate(870.54 827.01) rotate(180)" style="fill:#ebebeb"></rect><rect x="442.72" y="403.05" width="9.56" height="4.76" transform="translate(894.99 810.85) rotate(180)" style="fill:#ebebeb"></rect><rect x="430.49" y="403.05" width="9.56" height="4.76" transform="translate(870.54 810.85) rotate(180)" style="fill:#ebebeb"></rect><rect x="442.72" y="394.97" width="9.56" height="4.76" transform="translate(894.99 794.7) rotate(180)" style="fill:#ebebeb"></rect><rect x="430.49" y="394.97" width="9.56" height="4.76" transform="translate(870.54 794.7) rotate(180)" style="fill:#ebebeb"></rect><rect x="442.72" y="386.9" width="9.56" height="4.76" transform="translate(894.99 778.55) rotate(180)" style="fill:#ebebeb"></rect><rect x="430.49" y="386.9" width="9.56" height="4.76" transform="translate(870.54 778.55) rotate(180)" style="fill:#ebebeb"></rect><rect x="442.72" y="378.82" width="9.56" height="4.76" transform="translate(894.99 762.39) rotate(180)" style="fill:#ebebeb"></rect><rect x="430.49" y="378.82" width="9.56" height="4.76" transform="translate(870.54 762.39) rotate(180)" style="fill:#ebebeb"></rect><rect x="442.72" y="370.74" width="9.56" height="4.76" transform="translate(894.99 746.24) rotate(180)" style="fill:#ebebeb"></rect><rect x="430.49" y="370.74" width="9.56" height="4.76" transform="translate(870.54 746.24) rotate(180)" style="fill:#ebebeb"></rect><rect x="442.72" y="362.67" width="9.56" height="4.76" transform="translate(894.99 730.09) rotate(180)" style="fill:#ebebeb"></rect><rect x="430.49" y="362.67" width="9.56" height="4.76" transform="translate(870.54 730.09) rotate(180)" style="fill:#ebebeb"></rect><rect x="442.72" y="354.59" width="9.56" height="4.76" transform="translate(894.99 713.94) rotate(180)" style="fill:#ebebeb"></rect><rect x="430.49" y="354.59" width="9.56" height="4.76" transform="translate(870.54 713.94) rotate(180)" style="fill:#ebebeb"></rect><rect x="442.72" y="346.51" width="9.56" height="4.76" transform="translate(894.99 697.78) rotate(180)" style="fill:#ebebeb"></rect><rect x="430.49" y="346.51" width="9.56" height="4.76" transform="translate(870.54 697.78) rotate(180)" style="fill:#ebebeb"></rect><rect x="442.72" y="338.44" width="9.56" height="4.76" transform="translate(894.99 681.63) rotate(180)" style="fill:#ebebeb"></rect><rect x="430.49" y="338.44" width="9.56" height="4.76" transform="translate(870.54 681.63) rotate(180)" style="fill:#ebebeb"></rect><rect x="442.72" y="330.36" width="9.56" height="4.76" transform="translate(894.99 665.48) rotate(180)" style="fill:#ebebeb"></rect><rect x="430.49" y="330.36" width="9.56" height="4.76" transform="translate(870.54 665.48) rotate(180)" style="fill:#ebebeb"></rect><rect x="442.72" y="322.28" width="9.56" height="4.76" transform="translate(894.99 649.32) rotate(180)" style="fill:#ebebeb"></rect><rect x="430.49" y="322.28" width="9.56" height="4.76" transform="translate(870.54 649.32) rotate(180)" style="fill:#ebebeb"></rect><rect x="442.72" y="314.21" width="9.56" height="4.76" transform="translate(894.99 633.17) rotate(180)" style="fill:#ebebeb"></rect><rect x="430.49" y="314.21" width="9.56" height="4.76" transform="translate(870.54 633.17) rotate(180)" style="fill:#ebebeb"></rect><rect x="442.72" y="306.13" width="9.56" height="4.76" transform="translate(894.99 617.02) rotate(180)" style="fill:#ebebeb"></rect><rect x="430.49" y="306.13" width="9.56" height="4.76" transform="translate(870.54 617.02) rotate(180)" style="fill:#ebebeb"></rect><rect x="247.88" y="347.22" width="43.67" height="87.68" style="fill:#c7c7c7"></rect><rect x="254.75" y="354.81" width="7.73" height="5.37" style="fill:#dbdbdb"></rect><rect x="254.75" y="366.29" width="7.73" height="5.37" style="fill:#dbdbdb"></rect><rect x="254.75" y="377.76" width="7.73" height="5.37" style="fill:#dbdbdb"></rect><rect x="254.75" y="389.23" width="7.73" height="5.37" style="fill:#dbdbdb"></rect><rect x="254.75" y="400.71" width="7.73" height="5.37" style="fill:#dbdbdb"></rect><rect x="254.75" y="412.18" width="7.73" height="5.37" style="fill:#dbdbdb"></rect><rect x="254.75" y="423.65" width="7.73" height="5.37" style="fill:#dbdbdb"></rect><rect x="265.87" y="354.81" width="7.73" height="5.37" style="fill:#dbdbdb"></rect><rect x="265.87" y="366.29" width="7.73" height="5.37" style="fill:#dbdbdb"></rect><rect x="265.87" y="377.76" width="7.73" height="5.37" style="fill:#dbdbdb"></rect><rect x="265.87" y="389.23" width="7.73" height="5.37" style="fill:#dbdbdb"></rect><rect x="265.87" y="400.71" width="7.73" height="5.37" style="fill:#dbdbdb"></rect><rect x="265.87" y="412.18" width="7.73" height="5.37" style="fill:#dbdbdb"></rect><rect x="265.87" y="423.65" width="7.73" height="5.37" style="fill:#dbdbdb"></rect><rect x="276.96" y="354.81" width="7.73" height="5.37" style="fill:#dbdbdb"></rect><rect x="276.96" y="366.29" width="7.73" height="5.37" style="fill:#dbdbdb"></rect><rect x="276.96" y="377.76" width="7.73" height="5.37" style="fill:#dbdbdb"></rect><rect x="276.96" y="389.23" width="7.73" height="5.37" style="fill:#dbdbdb"></rect><rect x="276.96" y="400.71" width="7.73" height="5.37" style="fill:#dbdbdb"></rect><rect x="276.96" y="412.18" width="7.73" height="5.37" style="fill:#dbdbdb"></rect><rect x="276.96" y="423.65" width="7.73" height="5.37" style="fill:#dbdbdb"></rect><rect x="262.48" y="338.09" width="29.07" height="9.14" style="fill:#dbdbdb"></rect><rect x="273.12" y="332.43" width="18.43" height="5.66" style="fill:#ebebeb"></rect><rect x="291.55" y="347.22" width="30.64" height="87.68" style="fill:#a6a6a6"></rect><rect x="312.76" y="422.8" width="6.29" height="5.37" transform="translate(631.82 850.97) rotate(180)" style="fill:#c7c7c7"></rect><rect x="312.76" y="411.32" width="6.29" height="5.37" transform="translate(631.82 828.02) rotate(180)" style="fill:#c7c7c7"></rect><rect x="312.76" y="399.85" width="6.29" height="5.37" transform="translate(631.82 805.07) rotate(180)" style="fill:#c7c7c7"></rect><rect x="312.76" y="388.38" width="6.29" height="5.37" transform="translate(631.82 782.13) rotate(180)" style="fill:#c7c7c7"></rect><rect x="312.76" y="376.9" width="6.29" height="5.37" transform="translate(631.82 759.18) rotate(180)" style="fill:#c7c7c7"></rect><rect x="312.76" y="365.43" width="6.29" height="5.37" transform="translate(631.82 736.23) rotate(180)" style="fill:#c7c7c7"></rect><rect x="312.76" y="353.96" width="6.29" height="5.37" transform="translate(631.82 713.28) rotate(180)" style="fill:#c7c7c7"></rect><rect x="303.71" y="422.8" width="6.29" height="5.37" transform="translate(613.72 850.97) rotate(180)" style="fill:#c7c7c7"></rect><rect x="303.71" y="411.32" width="6.29" height="5.37" transform="translate(613.72 828.02) rotate(180)" style="fill:#c7c7c7"></rect><rect x="303.71" y="399.85" width="6.29" height="5.37" transform="translate(613.72 805.07) rotate(180)" style="fill:#c7c7c7"></rect><rect x="303.71" y="388.38" width="6.29" height="5.37" transform="translate(613.72 782.13) rotate(180)" style="fill:#c7c7c7"></rect><rect x="303.71" y="376.9" width="6.29" height="5.37" transform="translate(613.72 759.18) rotate(180)" style="fill:#c7c7c7"></rect><rect x="303.71" y="365.43" width="6.29" height="5.37" transform="translate(613.72 736.23) rotate(180)" style="fill:#c7c7c7"></rect><rect x="303.71" y="353.96" width="6.29" height="5.37" transform="translate(613.72 713.28) rotate(180)" style="fill:#c7c7c7"></rect><rect x="294.69" y="422.8" width="6.29" height="5.37" transform="translate(595.67 850.97) rotate(180)" style="fill:#c7c7c7"></rect><rect x="294.69" y="411.32" width="6.29" height="5.37" transform="translate(595.67 828.02) rotate(180)" style="fill:#c7c7c7"></rect><rect x="294.69" y="399.85" width="6.29" height="5.37" transform="translate(595.67 805.07) rotate(180)" style="fill:#c7c7c7"></rect><rect x="294.69" y="388.38" width="6.29" height="5.37" transform="translate(595.67 782.13) rotate(180)" style="fill:#c7c7c7"></rect><rect x="294.69" y="376.9" width="6.29" height="5.37" transform="translate(595.67 759.18) rotate(180)" style="fill:#c7c7c7"></rect><rect x="294.69" y="365.43" width="6.29" height="5.37" transform="translate(595.67 736.23) rotate(180)" style="fill:#c7c7c7"></rect><rect x="294.69" y="353.96" width="6.29" height="5.37" transform="translate(595.67 713.28) rotate(180)" style="fill:#c7c7c7"></rect><rect x="291.55" y="338.09" width="26" height="9.14" style="fill:#c7c7c7"></rect><rect x="291.55" y="332.43" width="14.09" height="5.66" style="fill:#dbdbdb"></rect></g><g id="freepik--Plants--inject-38"><path d="M88.42,427.63s-.84-3.92-2.52-4.53-2.71,1.16-2.71,1.16-.39-3.75-2.78-4.88-4.17,1.18-4.17,1.18-1.83-4.76-5.1-4.76-4.91,7-4.91,7-1.93-2.07-3.91-.9-2,5.77-2,5.77Z" style="fill:#37474f"></path><path d="M367.26,427.63s-.84-3.92-2.52-4.53-2.7,1.16-2.7,1.16-.4-3.75-2.78-4.88-4.17,1.18-4.17,1.18-1.83-4.76-5.1-4.76-4.92,7-4.92,7-1.92-2.07-3.9-.9-2,5.77-2,5.77Z" style="fill:#455a64"></path><path d="M162.7,427.63H133.15s1-4.16,2.93-4.46a2.91,2.91,0,0,1,2.88,1.64s-.09-5.81,3.57-6.8,6.72,4.14,6.72,4.14,2.3-2.92,5.42-2.74,3.93,5,3.93,5S161.44,422.76,162.7,427.63Z" style="fill:#37474f"></path><path d="M62.16,427.63H46.61s0-2.31,1.56-2.93a2.09,2.09,0,0,1,2.44.59s.62-4.26,3.47-4.26,4.22,3.67,4.22,3.67a2.18,2.18,0,0,1,2.22-.9C62.1,424,62.16,427.63,62.16,427.63Z" style="fill:#455a64"></path><path d="M174.9,427.63H159.35s0-2.31,1.56-2.93a2.09,2.09,0,0,1,2.44.59S164,421,166.83,421,171,424.7,171,424.7a2.18,2.18,0,0,1,2.22-.9C174.84,424,174.9,427.63,174.9,427.63Z" style="fill:#455a64"></path><path d="M430.7,427.63H415.15s0-2.31,1.56-2.93a2.09,2.09,0,0,1,2.44.59s.62-4.26,3.47-4.26,4.22,3.67,4.22,3.67a2.17,2.17,0,0,1,2.22-.9C430.64,424,430.7,427.63,430.7,427.63Z" style="fill:#455a64"></path><path d="M453.39,427.63H427.75s.06-3.81,2.58-4.83a3.44,3.44,0,0,1,4,1s1-7,5.73-7S447,422.8,447,422.8a3.58,3.58,0,0,1,3.66-1.48C453.29,421.66,453.39,427.63,453.39,427.63Z" style="fill:#37474f"></path></g><g id="freepik--Floor--inject-38"><rect x="41.36" y="427.63" width="417.27" height="7.27" style="fill:#c7c7c7"></rect><path d="M70.62,427.63a13.73,13.73,0,0,1,0,7.27,12,12,0,0,1-.5-3.63A12.34,12.34,0,0,1,70.62,427.63Z" style="fill:#263238"></path><path d="M103.23,427.63a12.34,12.34,0,0,1,.5,3.64,12,12,0,0,1-.5,3.63,13.73,13.73,0,0,1,0-7.27Z" style="fill:#263238"></path><path d="M135.85,427.63a13.73,13.73,0,0,1,0,7.27,12,12,0,0,1-.5-3.63A12.34,12.34,0,0,1,135.85,427.63Z" style="fill:#263238"></path><path d="M168.46,427.63a12.34,12.34,0,0,1,.5,3.64,12,12,0,0,1-.5,3.63,13.73,13.73,0,0,1,0-7.27Z" style="fill:#263238"></path><path d="M201.08,427.63a13.73,13.73,0,0,1,0,7.27,12,12,0,0,1-.5-3.63A12.34,12.34,0,0,1,201.08,427.63Z" style="fill:#263238"></path><path d="M233.69,427.63a12.34,12.34,0,0,1,.5,3.64,12,12,0,0,1-.5,3.63,13.73,13.73,0,0,1,0-7.27Z" style="fill:#263238"></path><path d="M266.31,427.63a13.73,13.73,0,0,1,0,7.27,12,12,0,0,1-.5-3.63A12.34,12.34,0,0,1,266.31,427.63Z" style="fill:#263238"></path><path d="M298.92,427.63a12.34,12.34,0,0,1,.5,3.64,12,12,0,0,1-.5,3.63,13.73,13.73,0,0,1,0-7.27Z" style="fill:#263238"></path><path d="M331.54,427.63a13.73,13.73,0,0,1,0,7.27,12,12,0,0,1-.5-3.63A12.34,12.34,0,0,1,331.54,427.63Z" style="fill:#263238"></path><path d="M364.15,427.63a12.34,12.34,0,0,1,.5,3.64,12,12,0,0,1-.5,3.63,13.73,13.73,0,0,1,0-7.27Z" style="fill:#263238"></path><path d="M396.77,427.63a13.73,13.73,0,0,1,0,7.27,12,12,0,0,1-.5-3.63A12.34,12.34,0,0,1,396.77,427.63Z" style="fill:#263238"></path><path d="M429.38,427.63a12.34,12.34,0,0,1,.5,3.64,12,12,0,0,1-.5,3.63,13.73,13.73,0,0,1,0-7.27Z" style="fill:#263238"></path><polygon points="44.45 434.9 95.84 434.66 147.23 434.57 250 434.4 352.77 434.57 404.16 434.66 455.55 434.9 404.16 435.15 352.77 435.24 250 435.4 147.23 435.23 95.84 435.15 44.45 434.9" style="fill:#263238"></polygon></g></svg>